<svg xmlns="http://www.w3.org/2000/svg" viewBox="0 0 1280 380" preserveAspectRatio="xMidYMid meet" width="100%" font-family="ui-monospace, SFMono-Regular, Menlo, Consolas, 'Liberation Mono', monospace">
  <defs>
    <linearGradient id="bg" x1="0" y1="0" x2="0" y2="1">
      <stop offset="0" stop-color="#0d1015"/>
      <stop offset="1" stop-color="#080a0d"/>
    </linearGradient>
    <radialGradient id="glow" cx="0.72" cy="0.0" r="0.55">
      <stop offset="0" stop-color="#c19a5b" stop-opacity="0.10"/>
      <stop offset="1" stop-color="#c19a5b" stop-opacity="0"/>
    </radialGradient>
  </defs>

  <rect width="1280" height="380" fill="url(#bg)"/>
  <rect width="1280" height="380" fill="url(#glow)"/>

  <!-- top status strip — mimics the live app -->
  <g font-size="13" fill="#5e6770">
    <circle cx="78" cy="46" r="3.5" fill="#c19a5b"/>
    <text x="92" y="50">conduit/0.1 · capturing on en0 · 217 pps · 6 ports · up 4h32m</text>
  </g>

  <!-- ASCII art wordmark — shadow layer -->
  <text x="0" y="0" font-size="22" font-weight="700" fill="#6e4f23" xml:space="preserve">
    <tspan x="262" y="114"> ██████╗ ██████╗ ███╗   ██╗██████╗ ██╗   ██╗██╗████████╗</tspan>
    <tspan x="262" dy="26">██╔════╝██╔═══██╗████╗  ██║██╔══██╗██║   ██║██║╚══██╔══╝</tspan>
    <tspan x="262" dy="26">██║     ██║   ██║██╔██╗ ██║██║  ██║██║   ██║██║   ██║   </tspan>
    <tspan x="262" dy="26">██║     ██║   ██║██║╚██╗██║██║  ██║██║   ██║██║   ██║   </tspan>
    <tspan x="262" dy="26">╚██████╗╚██████╔╝██║ ╚████║██████╔╝╚██████╔╝██║   ██║   </tspan>
    <tspan x="262" dy="26"> ╚═════╝ ╚═════╝ ╚═╝  ╚═══╝╚═════╝  ╚═════╝ ╚═╝   ╚═╝   </tspan>
  </text>

  <!-- ASCII art wordmark — main layer -->
  <text x="0" y="0" font-size="22" font-weight="700" fill="#d4a86c" xml:space="preserve">
    <tspan x="258" y="111"> ██████╗ ██████╗ ███╗   ██╗██████╗ ██╗   ██╗██╗████████╗</tspan>
    <tspan x="258" dy="26">██╔════╝██╔═══██╗████╗  ██║██╔══██╗██║   ██║██║╚══██╔══╝</tspan>
    <tspan x="258" dy="26">██║     ██║   ██║██╔██╗ ██║██║  ██║██║   ██║██║   ██║   </tspan>
    <tspan x="258" dy="26">██║     ██║   ██║██║╚██╗██║██║  ██║██║   ██║██║   ██║   </tspan>
    <tspan x="258" dy="26">╚██████╗╚██████╔╝██║ ╚████║██████╔╝╚██████╔╝██║   ██║   </tspan>
    <tspan x="258" dy="26"> ╚═════╝ ╚═════╝ ╚═╝  ╚═══╝╚═════╝  ╚═════╝ ╚═╝   ╚═╝   </tspan>
  </text>

  <!-- tagline -->
  <text x="640" y="320" font-size="15" fill="#9aa3ad" text-anchor="middle" letter-spacing="0.2">
    live network traffic dashboard for ports you actually watch
  </text>

  <!-- baseline rule -->
  <line x1="80" y1="350" x2="1200" y2="350" stroke="rgba(255,255,255,0.05)" stroke-width="1"/>

  <!-- sparkline-style bars under the baseline (illustrative) -->
  <g fill="#8a8a8a">
    <rect x="80"  y="345" width="2" height="5"/>
    <rect x="83"  y="338" width="2" height="12"/>
    <rect x="86"  y="332" width="2" height="18"/>
    <rect x="89"  y="328" width="2" height="22"/>
    <rect x="92"  y="335" width="2" height="15"/>
    <rect x="95"  y="330" width="2" height="20"/>
    <rect x="98"  y="340" width="2" height="10"/>
    <rect x="101" y="334" width="2" height="16"/>
    <rect x="104" y="326" width="2" height="24"/>
    <rect x="107" y="338" width="2" height="12"/>
    <rect x="110" y="342" width="2" height="8"/>
    <rect x="113" y="335" width="2" height="15"/>
    <rect x="116" y="328" width="2" height="22"/>
    <rect x="119" y="332" width="2" height="18"/>
    <rect x="122" y="340" width="2" height="10"/>
  </g>
  <g fill="#4a4a4a">
    <rect x="125" y="343" width="2" height="7"/>
    <rect x="128" y="337" width="2" height="13"/>
    <rect x="131" y="340" width="2" height="10"/>
    <rect x="134" y="334" width="2" height="16"/>
    <rect x="137" y="338" width="2" height="12"/>
  </g>
  <g fill="#8a8a8a">
    <rect x="140" y="330" width="2" height="20"/>
    <rect x="143" y="333" width="2" height="17"/>
    <rect x="146" y="338" width="2" height="12"/>
    <rect x="149" y="328" width="2" height="22"/>
    <rect x="152" y="334" width="2" height="16"/>
    <rect x="155" y="340" width="2" height="10"/>
    <rect x="158" y="336" width="2" height="14"/>
    <rect x="161" y="329" width="2" height="21"/>
    <rect x="164" y="332" width="2" height="18"/>
    <rect x="167" y="338" width="2" height="12"/>
    <rect x="170" y="341" width="2" height="9"/>
    <rect x="173" y="335" width="2" height="15"/>
    <rect x="176" y="330" width="2" height="20"/>
  </g>
  <g fill="#4a4a4a">
    <rect x="179" y="338" width="2" height="12"/>
    <rect x="182" y="342" width="2" height="8"/>
    <rect x="185" y="336" width="2" height="14"/>
  </g>
  <g fill="#8a8a8a">
    <rect x="188" y="330" width="2" height="20"/>
    <rect x="191" y="333" width="2" height="17"/>
    <rect x="194" y="328" width="2" height="22"/>
    <rect x="197" y="336" width="2" height="14"/>
    <rect x="200" y="339" width="2" height="11"/>
  </g>
  <!-- amber leading bar -->
  <rect x="203" y="324" width="2" height="26" fill="#c19a5b"/>
</svg>
