<svg xmlns="http://www.w3.org/2000/svg" viewBox="0 0 1280 380" preserveAspectRatio="xMidYMid meet" width="100%" font-family="ui-monospace, SFMono-Regular, Menlo, Consolas, 'Liberation Mono', monospace">
  <defs>
    <linearGradient id="bg" x1="0" y1="0" x2="0" y2="1">
      <stop offset="0" stop-color="#13151b"/>
      <stop offset="1" stop-color="#0b0d12"/>
    </linearGradient>
    <radialGradient id="glow" cx="0.72" cy="0.0" r="0.55">
      <stop offset="0" stop-color="#7466c4" stop-opacity="0.12"/>
      <stop offset="1" stop-color="#7466c4" stop-opacity="0"/>
    </radialGradient>
  </defs>

  <rect width="1280" height="380" fill="url(#bg)"/>
  <rect width="1280" height="380" fill="url(#glow)"/>

  <!-- top status strip ‚ÄĒ mimics the live app -->
  <g font-size="13" fill="#5e6770">
    <circle cx="78" cy="46" r="3.5" fill="#c19a5b"/>
    <text x="92" y="50">conduit/0.1 ¬∑ capturing on en0 ¬∑ 217 pps ¬∑ 10 ports ¬∑ up 4h32m</text>
  </g>

  <!-- ASCII art wordmark ‚ÄĒ shadow layer -->
  <text x="0" y="0" font-size="22" font-weight="700" fill="#3f3873" xml:space="preserve">
    <tspan x="262" y="114"> ‚Ėą‚Ėą‚Ėą‚Ėą‚Ėą‚Ėą‚ēó ‚Ėą‚Ėą‚Ėą‚Ėą‚Ėą‚Ėą‚ēó ‚Ėą‚Ėą‚Ėą‚ēó   ‚Ėą‚Ėą‚ēó‚Ėą‚Ėą‚Ėą‚Ėą‚Ėą‚Ėą‚ēó ‚Ėą‚Ėą‚ēó   ‚Ėą‚Ėą‚ēó‚Ėą‚Ėą‚ēó‚Ėą‚Ėą‚Ėą‚Ėą‚Ėą‚Ėą‚Ėą‚Ėą‚ēó</tspan>
    <tspan x="262" dy="26">‚Ėą‚Ėą‚ēĒ‚ēź‚ēź‚ēź‚ēź‚ēĚ‚Ėą‚Ėą‚ēĒ‚ēź‚ēź‚ēź‚Ėą‚Ėą‚ēó‚Ėą‚Ėą‚Ėą‚Ėą‚ēó  ‚Ėą‚Ėą‚ēĎ‚Ėą‚Ėą‚ēĒ‚ēź‚ēź‚Ėą‚Ėą‚ēó‚Ėą‚Ėą‚ēĎ   ‚Ėą‚Ėą‚ēĎ‚Ėą‚Ėą‚ēĎ‚ēö‚ēź‚ēź‚Ėą‚Ėą‚ēĒ‚ēź‚ēź‚ēĚ</tspan>
    <tspan x="262" dy="26">‚Ėą‚Ėą‚ēĎ     ‚Ėą‚Ėą‚ēĎ   ‚Ėą‚Ėą‚ēĎ‚Ėą‚Ėą‚ēĒ‚Ėą‚Ėą‚ēó ‚Ėą‚Ėą‚ēĎ‚Ėą‚Ėą‚ēĎ  ‚Ėą‚Ėą‚ēĎ‚Ėą‚Ėą‚ēĎ   ‚Ėą‚Ėą‚ēĎ‚Ėą‚Ėą‚ēĎ   ‚Ėą‚Ėą‚ēĎ   </tspan>
    <tspan x="262" dy="26">‚Ėą‚Ėą‚ēĎ     ‚Ėą‚Ėą‚ēĎ   ‚Ėą‚Ėą‚ēĎ‚Ėą‚Ėą‚ēĎ‚ēö‚Ėą‚Ėą‚ēó‚Ėą‚Ėą‚ēĎ‚Ėą‚Ėą‚ēĎ  ‚Ėą‚Ėą‚ēĎ‚Ėą‚Ėą‚ēĎ   ‚Ėą‚Ėą‚ēĎ‚Ėą‚Ėą‚ēĎ   ‚Ėą‚Ėą‚ēĎ   </tspan>
    <tspan x="262" dy="26">‚ēö‚Ėą‚Ėą‚Ėą‚Ėą‚Ėą‚Ėą‚ēó‚ēö‚Ėą‚Ėą‚Ėą‚Ėą‚Ėą‚Ėą‚ēĒ‚ēĚ‚Ėą‚Ėą‚ēĎ ‚ēö‚Ėą‚Ėą‚Ėą‚Ėą‚ēĎ‚Ėą‚Ėą‚Ėą‚Ėą‚Ėą‚Ėą‚ēĒ‚ēĚ‚ēö‚Ėą‚Ėą‚Ėą‚Ėą‚Ėą‚Ėą‚ēĒ‚ēĚ‚Ėą‚Ėą‚ēĎ   ‚Ėą‚Ėą‚ēĎ   </tspan>
    <tspan x="262" dy="26"> ‚ēö‚ēź‚ēź‚ēź‚ēź‚ēź‚ēĚ ‚ēö‚ēź‚ēź‚ēź‚ēź‚ēź‚ēĚ ‚ēö‚ēź‚ēĚ  ‚ēö‚ēź‚ēź‚ēź‚ēĚ‚ēö‚ēź‚ēź‚ēź‚ēź‚ēź‚ēĚ  ‚ēö‚ēź‚ēź‚ēź‚ēź‚ēź‚ēĚ ‚ēö‚ēź‚ēĚ   ‚ēö‚ēź‚ēĚ   </tspan>
  </text>

  <!-- ASCII art wordmark ‚ÄĒ main layer -->
  <text x="0" y="0" font-size="22" font-weight="700" fill="#9080dd" xml:space="preserve">
    <tspan x="258" y="111"> ‚Ėą‚Ėą‚Ėą‚Ėą‚Ėą‚Ėą‚ēó ‚Ėą‚Ėą‚Ėą‚Ėą‚Ėą‚Ėą‚ēó ‚Ėą‚Ėą‚Ėą‚ēó   ‚Ėą‚Ėą‚ēó‚Ėą‚Ėą‚Ėą‚Ėą‚Ėą‚Ėą‚ēó ‚Ėą‚Ėą‚ēó   ‚Ėą‚Ėą‚ēó‚Ėą‚Ėą‚ēó‚Ėą‚Ėą‚Ėą‚Ėą‚Ėą‚Ėą‚Ėą‚Ėą‚ēó</tspan>
    <tspan x="258" dy="26">‚Ėą‚Ėą‚ēĒ‚ēź‚ēź‚ēź‚ēź‚ēĚ‚Ėą‚Ėą‚ēĒ‚ēź‚ēź‚ēź‚Ėą‚Ėą‚ēó‚Ėą‚Ėą‚Ėą‚Ėą‚ēó  ‚Ėą‚Ėą‚ēĎ‚Ėą‚Ėą‚ēĒ‚ēź‚ēź‚Ėą‚Ėą‚ēó‚Ėą‚Ėą‚ēĎ   ‚Ėą‚Ėą‚ēĎ‚Ėą‚Ėą‚ēĎ‚ēö‚ēź‚ēź‚Ėą‚Ėą‚ēĒ‚ēź‚ēź‚ēĚ</tspan>
    <tspan x="258" dy="26">‚Ėą‚Ėą‚ēĎ     ‚Ėą‚Ėą‚ēĎ   ‚Ėą‚Ėą‚ēĎ‚Ėą‚Ėą‚ēĒ‚Ėą‚Ėą‚ēó ‚Ėą‚Ėą‚ēĎ‚Ėą‚Ėą‚ēĎ  ‚Ėą‚Ėą‚ēĎ‚Ėą‚Ėą‚ēĎ   ‚Ėą‚Ėą‚ēĎ‚Ėą‚Ėą‚ēĎ   ‚Ėą‚Ėą‚ēĎ   </tspan>
    <tspan x="258" dy="26">‚Ėą‚Ėą‚ēĎ     ‚Ėą‚Ėą‚ēĎ   ‚Ėą‚Ėą‚ēĎ‚Ėą‚Ėą‚ēĎ‚ēö‚Ėą‚Ėą‚ēó‚Ėą‚Ėą‚ēĎ‚Ėą‚Ėą‚ēĎ  ‚Ėą‚Ėą‚ēĎ‚Ėą‚Ėą‚ēĎ   ‚Ėą‚Ėą‚ēĎ‚Ėą‚Ėą‚ēĎ   ‚Ėą‚Ėą‚ēĎ   </tspan>
    <tspan x="258" dy="26">‚ēö‚Ėą‚Ėą‚Ėą‚Ėą‚Ėą‚Ėą‚ēó‚ēö‚Ėą‚Ėą‚Ėą‚Ėą‚Ėą‚Ėą‚ēĒ‚ēĚ‚Ėą‚Ėą‚ēĎ ‚ēö‚Ėą‚Ėą‚Ėą‚Ėą‚ēĎ‚Ėą‚Ėą‚Ėą‚Ėą‚Ėą‚Ėą‚ēĒ‚ēĚ‚ēö‚Ėą‚Ėą‚Ėą‚Ėą‚Ėą‚Ėą‚ēĒ‚ēĚ‚Ėą‚Ėą‚ēĎ   ‚Ėą‚Ėą‚ēĎ   </tspan>
    <tspan x="258" dy="26"> ‚ēö‚ēź‚ēź‚ēź‚ēź‚ēź‚ēĚ ‚ēö‚ēź‚ēź‚ēź‚ēź‚ēź‚ēĚ ‚ēö‚ēź‚ēĚ  ‚ēö‚ēź‚ēź‚ēź‚ēĚ‚ēö‚ēź‚ēź‚ēź‚ēź‚ēź‚ēĚ  ‚ēö‚ēź‚ēź‚ēź‚ēź‚ēź‚ēĚ ‚ēö‚ēź‚ēĚ   ‚ēö‚ēź‚ēĚ   </tspan>
  </text>

  <!-- tagline -->
  <text x="640" y="320" font-size="15" fill="#9aa3ad" text-anchor="middle" letter-spacing="0.2">
    live network traffic dashboard for ports you actually watch
  </text>

  <!-- baseline rule -->
  <line x1="80" y1="350" x2="1200" y2="350" stroke="rgba(255,255,255,0.05)" stroke-width="1"/>

  <!-- sparkline-style bars under the baseline (illustrative, app palette) -->
  <g fill="#7466c4">
    <rect x="80"  y="345" width="2" height="5"/>
    <rect x="83"  y="338" width="2" height="12"/>
    <rect x="86"  y="332" width="2" height="18"/>
    <rect x="89"  y="328" width="2" height="22"/>
    <rect x="92"  y="335" width="2" height="15"/>
    <rect x="95"  y="330" width="2" height="20"/>
    <rect x="98"  y="340" width="2" height="10"/>
    <rect x="101" y="334" width="2" height="16"/>
    <rect x="104" y="326" width="2" height="24"/>
    <rect x="107" y="338" width="2" height="12"/>
    <rect x="110" y="342" width="2" height="8"/>
    <rect x="113" y="335" width="2" height="15"/>
    <rect x="116" y="328" width="2" height="22"/>
    <rect x="119" y="332" width="2" height="18"/>
    <rect x="122" y="340" width="2" height="10"/>
  </g>
  <g fill="#a888c8">
    <rect x="125" y="343" width="2" height="7"/>
    <rect x="128" y="337" width="2" height="13"/>
    <rect x="131" y="340" width="2" height="10"/>
    <rect x="134" y="334" width="2" height="16"/>
    <rect x="137" y="338" width="2" height="12"/>
  </g>
  <g fill="#7466c4">
    <rect x="140" y="330" width="2" height="20"/>
    <rect x="143" y="333" width="2" height="17"/>
    <rect x="146" y="338" width="2" height="12"/>
    <rect x="149" y="328" width="2" height="22"/>
    <rect x="152" y="334" width="2" height="16"/>
    <rect x="155" y="340" width="2" height="10"/>
    <rect x="158" y="336" width="2" height="14"/>
    <rect x="161" y="329" width="2" height="21"/>
    <rect x="164" y="332" width="2" height="18"/>
    <rect x="167" y="338" width="2" height="12"/>
    <rect x="170" y="341" width="2" height="9"/>
    <rect x="173" y="335" width="2" height="15"/>
    <rect x="176" y="330" width="2" height="20"/>
  </g>
  <g fill="#a888c8">
    <rect x="179" y="338" width="2" height="12"/>
    <rect x="182" y="342" width="2" height="8"/>
    <rect x="185" y="336" width="2" height="14"/>
  </g>
  <g fill="#7466c4">
    <rect x="188" y="330" width="2" height="20"/>
    <rect x="191" y="333" width="2" height="17"/>
    <rect x="194" y="328" width="2" height="22"/>
    <rect x="197" y="336" width="2" height="14"/>
    <rect x="200" y="339" width="2" height="11"/>
  </g>
  <!-- amber leading bar (matches the app's newest-packet accent) -->
  <rect x="203" y="324" width="2" height="26" fill="#c19a5b"/>
</svg>
